<?xml version="1.0" encoding="utf-8"?>
<!-- Generator: Adobe Illustrator 19.0.0, SVG Export Plug-In . SVG Version: 6.00 Build 0)  -->
<svg version="1.1" id="Layer_1" xmlns="http://www.w3.org/2000/svg" xmlns:xlink="http://www.w3.org/1999/xlink" x="0px" y="0px"
	 width="512px" height="512px" viewBox="-255 -128 512 512" style="enable-background:new -255 -128 512 512;" xml:space="preserve"
	>
<style type="text/css">
	.st0{fill:#FFFFFF;}
</style>
<g>
	<path class="st0" d="M175.4,19h-67.5L67.5-21.8c0,0-0.2-0.2-0.3-0.2L67-22.2l0,0c-6-6-14.1-9.8-23.3-9.8h-84
		c-9.8,0-18.5,4.2-24.6,10.9v0.1l-39.5,40h-69C-192,19-207,33.6-207,52.2v202.1c0,18.6,15,33.7,33.6,33.7h348.8
		c18.5,0,33.6-15.1,33.6-33.7V52.2C209,33.6,193.9,19,175.4,19z M1,237.5c-50.9,0-92.4-41.6-92.4-92.6c0-51.1,41.5-92.6,92.4-92.6
		c51,0,92.4,41.5,92.4,92.6C93.4,195.9,52,237.5,1,237.5z M169.1,72.5c-7.7,0-14-6.3-14-14.1s6.3-14.1,14-14.1s14,6.3,14,14.1
		S176.8,72.5,169.1,72.5z"/>
	<path class="st0" d="M1,74.9c-38.6,0-69.8,31.3-69.8,70c0,38.6,31.2,70,69.8,70c38.5,0,69.8-31.3,69.8-70S39.5,74.9,1,74.9z"/>
</g>
</svg>
