<?xml version="1.0" encoding="utf-8"?>
<!-- Generator: Adobe Illustrator 19.0.0, SVG Export Plug-In . SVG Version: 6.00 Build 0)  -->
<svg version="1.1" id="Layer_1" xmlns="http://www.w3.org/2000/svg" xmlns:xlink="http://www.w3.org/1999/xlink" x="0px" y="0px"
	 width="512px" height="512px" viewBox="-255 -128 512 512" style="enable-background:new -255 -128 512 512;" xml:space="preserve"
	>
<g>
	<path d="M253.8,128.3C193.9,59.2,111.1-20.2,1-20.2c-44.5,0-85.2,12.6-128.2,39.4C-163.4,42-200.6,74-251.7,126.7l-1.3,1.3l8.9,9.1
		c72.9,74.6,135.9,139,245.1,139c48.3,0,95.1-15.7,143.1-48.2c40.9-27.6,75.7-62.7,103.6-91l7.3-7.3L253.8,128.3z M1,233.8
		c-58.3,0-105.8-47.5-105.8-105.8S-57.3,22.2,1,22.2S106.8,69.7,106.8,128S59.3,233.8,1,233.8z"/>
	<path d="M-6.4,89.4c0-9.1,2.6-17.7,7.3-24.9c-35.1,0-63.4,28.6-63.4,63.8s28.4,63.6,63.4,63.6s63.5-28.4,63.5-63.6l0,0
		c-7.1,4.6-15.7,7.3-24.9,7.3C14.2,135.4-6.4,114.8-6.4,89.4z"/>
</g>
</svg>
