<?xml version="1.0" encoding="utf-8"?>
<!-- Generator: Adobe Illustrator 19.0.0, SVG Export Plug-In . SVG Version: 6.00 Build 0)  -->
<svg version="1.1" xmlns="http://www.w3.org/2000/svg" xmlns:xlink="http://www.w3.org/1999/xlink" x="0px" y="0px" width="256px"
	 height="256px" viewBox="0 0 256 256" style="enable-background:new 0 0 256 256;" xml:space="preserve">
<style type="text/css">
	.st0{display:none;fill:#DB7F2C;}
	.st1{display:none;}
	.st2{display:inline;}
	.st3{fill:#414042;}
	.st4{opacity:0.1;fill:#FFFFFF;}
	.st5{fill:#F1F3EE;}
	.st6{fill:#8E182F;}
	.st7{fill:#D61D46;}
	.st8{fill:#E4345B;}
	.st9{opacity:0.8;fill:#FFFFFF;}
	.st10{opacity:0.9;}
	.st11{display:inline;fill:#FFFFFF;}
	.st12{fill:#F6C8A2;}
	.st13{fill:#2D2D2C;}
	.st14{fill:#ECECEC;}
	.st15{opacity:0.3;fill:#FFFFFF;}
	.st16{fill:none;stroke:#FF3E3E;stroke-width:18;stroke-linecap:round;stroke-linejoin:round;stroke-miterlimit:10;}
	.st17{fill:#FF3E3E;}
</style>
<g id="Capa_1">
	<rect id="XMLID_8_" class="st0" width="1024" height="256"/>
	<g id="XMLID_10_" class="st1">
		<g id="XMLID_16_" class="st2">
			
				<rect id="XMLID_76_" x="247.1" y="124.8" transform="matrix(0.9998 -2.022194e-02 2.022194e-02 0.9998 -3.1336 5.2391)" class="st3" width="20.8" height="65.4"/>
			
				<rect id="XMLID_73_" x="247.1" y="125" transform="matrix(0.9998 -2.038688e-02 2.038688e-02 0.9998 -3.1625 5.158)" class="st4" width="8.6" height="65.4"/>
			<path id="XMLID_70_" class="st5" d="M238.1,105c0,2.4-1.9,4.4-4.3,4.4l-11.6,0.2c-2.4,0-4.4-1.9-4.5-4.3l-0.2-10.2
				c0-2.4,1.9-4.4,4.3-4.5l11.6-0.2c2.4,0,4.4,1.9,4.5,4.3L238.1,105z"/>
			<g id="XMLID_67_">
				<g id="XMLID_68_">
					
						<ellipse id="XMLID_69_" transform="matrix(0.9998 -2.014339e-02 2.014339e-02 0.9998 -1.9154 6.7102)" class="st6" cx="332.1" cy="98.4" rx="6.4" ry="54.6"/>
				</g>
			</g>
			<path id="XMLID_64_" class="st7" d="M271.6,190.3c0,0.5-0.4,1-0.9,1l-24.9,0.5c-0.5,0-1-0.4-1-0.9l-0.1-3.2c0-0.5,0.4-1,0.9-1
				l24.9-0.5c0.5,0,1,0.4,1,0.9L271.6,190.3z"/>
			<path id="XMLID_61_" class="st7" d="M270.4,130.2c0,0.5-0.4,1-0.9,1l-24.9,0.5c-0.5,0-1-0.4-1-0.9l-0.1-3.2c0-0.5,0.4-1,0.9-1
				l24.9-0.5c0.5,0,1,0.4,1,0.9L270.4,130.2z"/>
			<path id="XMLID_58_" class="st5" d="M330.4,44.1c0,0-28,25.1-50.4,25.6c-11.9,0.2-10,0.2-10,0.2l1.2,57.3c0,0,1.3,0,8.9-0.2
				c24.8-0.5,52.6,26,52.6,26s-5.1-27.8-5.6-55.6C326.4,69.6,330.4,44.1,330.4,44.1z"/>
			<path id="XMLID_55_" class="st8" d="M245.7,70.4C233,70.6,223,81.1,223.2,93.8l0.2,11.5c0.3,12.7,10.7,22.7,23.4,22.4l24.7-0.5
				l-1.2-57.3L245.7,70.4z"/>
			<path id="XMLID_54_" class="st3" d="M341.4,97.2c-0.2-7.7-6.3-13.8-13.9-14.1c-0.8,9.5-1.1,19.2,0,28.7
				C335.3,111.5,341.5,105,341.4,97.2z"/>
			<path id="XMLID_51_" class="st4" d="M270.8,89.4l-0.4-19.5c0,0,0,0,0,0c-0.2,0-0.3,0-0.4,0c-0.1,0-0.1,0-0.1,0l-24.2,0.5
				c-11.5,0.2-20.8,8.9-22.3,20c0,0.1,0,0.2,0,0.3l-1.5,0c-2.4,0-4.3,2-4.3,4.5l0.1,5.6l53.3-1.1L270.8,89.4z"/>
			<path id="XMLID_48_" class="st9" d="M327,97.4c-0.1-3.1-0.1-6.1,0-9.1c0.3-24,3.4-44.2,3.4-44.2s-28,25.1-50.4,25.6
				c-6.2,0.1-8.7,0.2-9.6,0.2l0.4,19.5l0.2,10.3l56-1.1C327,98.2,327,97.8,327,97.4z"/>
			<path id="XMLID_45_" class="st8" d="M331.3,59c0.2,1.4,0.4,3,0.6,4.7c1.2,9.7,1.9,22,2.2,34.7c0.3,12.7,0,25.1-0.8,34.8
				c-0.1,1.8-0.3,3.3-0.4,4.8c-0.2-1.4-0.4-3-0.6-4.7c-1.2-9.7-1.9-22-2.2-34.7c-0.3-12.7,0-25.1,0.8-34.8
				C331,62,331.2,60.4,331.3,59 M331.6,44c-0.2-0.1-0.3-0.2-0.5-0.2c-3.6,0.1-6,24.6-5.3,54.7c0.6,28.6,3.7,52.1,7,54.3
				c0.2,0.1,0.3,0.2,0.5,0.2c3.6-0.1,6-24.6,5.3-54.7C338,69.7,334.9,46.2,331.6,44L331.6,44z"/>
			<path id="XMLID_44_" class="st3" d="M341.4,97.2c-0.1-6.1-4.1-11.3-9.5-13.2c0.6,9,0.7,17.9,0.5,26.8
				C337.7,108.6,341.5,103.3,341.4,97.2z"/>
			<path id="XMLID_41_" class="st4" d="M341.4,98c0-0.1,0-0.1,0-0.2c0-0.2,0-0.4,0-0.7c0-0.2,0-0.4,0-0.7c0-0.1,0-0.1,0-0.2
				c0-0.1,0-0.3,0-0.4c0-0.1,0-0.2,0-0.2c0-0.1,0-0.3-0.1-0.4c0-0.1,0-0.1,0-0.2c0-0.2-0.1-0.4-0.1-0.6c0,0,0,0,0-0.1
				c0-0.2-0.1-0.4-0.1-0.5c0-0.1,0-0.1-0.1-0.2c0-0.1-0.1-0.3-0.1-0.4c0-0.1,0-0.2-0.1-0.2c0-0.1-0.1-0.2-0.1-0.4
				c0-0.1-0.1-0.2-0.1-0.2c-0.1-0.2-0.1-0.3-0.2-0.5c0-0.1-0.1-0.2-0.1-0.3c-0.1-0.1-0.1-0.2-0.2-0.4c0-0.1-0.1-0.2-0.1-0.3
				c0-0.1-0.1-0.2-0.1-0.3c0-0.1-0.1-0.2-0.1-0.3c0-0.1-0.1-0.2-0.1-0.3c-0.1-0.1-0.1-0.2-0.2-0.3c0-0.1-0.1-0.1-0.1-0.2
				c-0.1-0.2-0.2-0.4-0.4-0.6c0-0.1-0.1-0.1-0.1-0.2c-0.1-0.1-0.2-0.2-0.2-0.3c0-0.1-0.1-0.1-0.1-0.2c-0.1-0.1-0.2-0.2-0.2-0.3
				c0,0-0.1-0.1-0.1-0.1c-0.3-0.4-0.7-0.7-1-1.1c0,0,0,0,0,0c-0.1-0.1-0.2-0.2-0.4-0.3c0,0,0,0-0.1-0.1c-0.1-0.1-0.2-0.2-0.4-0.3
				c0,0,0,0,0,0c-0.5-0.4-1.1-0.8-1.7-1.2c0,0,0,0,0,0c-2-1.2-4.3-1.9-6.8-2c-0.5,5.1-0.7,10.3-0.7,15.5l14.6-0.3
				C341.3,98.2,341.4,98.1,341.4,98z"/>
			
				<rect id="XMLID_38_" x="267.8" y="147.2" transform="matrix(0.9998 -2.016554e-02 2.016554e-02 0.9998 -3.0436 5.4844)" class="st5" width="5.2" height="12.9"/>
			<path id="XMLID_36_" class="st8" d="M334.4,125.5c-0.1,2.8-0.3,5.4-0.5,7.9c-0.3,3.4-0.6,6.2-0.9,8.4c-0.4-2.2-0.8-4.9-1.2-8.3
				c-1.2-9.7-2-22.1-2.2-35c-0.3-12.8,0-25.3,0.8-35c0.3-3.4,0.6-6.2,0.9-8.4c0.1,0.6,0.2,1.3,0.4,2.1c0.5-2.2,1.3-4.2,2.8-5.8
				c-1.1-4.8-2.2-7.5-3.4-7.5c-3.6,0.1-6,24.6-5.3,54.7c0.6,30.1,4,54.5,7.5,54.4c2.2,0,4-9.5,4.8-23.8L334.4,125.5z"/>
		</g>
		<g id="XMLID_11_" class="st10">
			<path id="XMLID_15_" class="st11" d="M343.4,78.2c0,0,0.2,0.1,0.5,0.2c0.3,0.2,0.8,0.4,1.3,0.7c0.3,0.2,0.6,0.4,0.9,0.6
				c0.3,0.2,0.7,0.5,1,0.8c0.4,0.3,0.7,0.6,1.1,0.9c0.4,0.3,0.8,0.7,1.2,1.1c0.4,0.4,0.8,0.9,1.2,1.3c0.4,0.5,0.8,1,1.2,1.5
				c0.8,1.1,1.5,2.3,2.1,3.6c0.1,0.3,0.3,0.7,0.4,1c0.1,0.3,0.3,0.7,0.4,1.1c0.3,0.7,0.4,1.5,0.6,2.2c0.3,1.5,0.5,3.1,0.6,4.7l0,1.2
				c0,0.3,0,0.8-0.1,1.2c0,0.8-0.2,1.6-0.3,2.4c-0.2,0.8-0.3,1.5-0.6,2.2c-0.1,0.4-0.2,0.7-0.3,1.1c-0.1,0.4-0.3,0.7-0.4,1
				c-0.6,1.4-1.2,2.6-2,3.7c-0.3,0.6-0.7,1.1-1.1,1.6c-0.4,0.5-0.8,0.9-1.2,1.4c-0.4,0.4-0.8,0.8-1.2,1.2c-0.4,0.3-0.7,0.7-1.1,1
				c-0.4,0.3-0.7,0.6-1,0.8c-0.3,0.2-0.6,0.4-0.9,0.6c-0.5,0.4-1,0.6-1.3,0.8c-0.3,0.2-0.5,0.3-0.5,0.3s0.1-0.1,0.3-0.4
				c0.2-0.3,0.6-0.7,0.9-1.2c0.2-0.3,0.4-0.5,0.6-0.8c0.2-0.3,0.5-0.6,0.7-1c0.2-0.4,0.5-0.7,0.8-1.2c0.3-0.4,0.5-0.9,0.8-1.3
				c0.3-0.5,0.5-0.9,0.8-1.4c0.2-0.5,0.5-1,0.8-1.6c0.5-1.1,0.9-2.3,1.3-3.5c0.4-1.2,0.6-2.5,0.8-3.8c0.1-0.7,0.2-1.3,0.2-2
				c0-0.3,0.1-0.6,0-1l0-1c0-1.4-0.2-2.7-0.4-4c-0.3-1.3-0.6-2.6-1-3.8c-0.4-1.2-0.9-2.4-1.4-3.4c-0.2-0.5-0.6-1-0.8-1.5
				c-0.3-0.5-0.6-1-0.9-1.4c-0.3-0.4-0.6-0.9-0.9-1.3c-0.3-0.4-0.6-0.8-0.8-1.1c-0.3-0.3-0.5-0.7-0.8-1c-0.2-0.3-0.5-0.6-0.7-0.8
				c-0.4-0.5-0.8-0.9-1-1.1C343.5,78.3,343.4,78.2,343.4,78.2z"/>
			<path id="XMLID_14_" class="st11" d="M343.1,66.9c0,0,0.3,0.1,0.8,0.3c0.3,0.1,0.6,0.2,1,0.4c0.2,0.1,0.4,0.2,0.6,0.2
				c0.2,0.1,0.5,0.2,0.7,0.3c0.5,0.2,1.1,0.5,1.7,0.8c0.6,0.3,1.2,0.7,1.9,1.1c0.3,0.2,0.7,0.4,1,0.6c0.3,0.2,0.7,0.5,1.1,0.7
				c0.4,0.2,0.7,0.5,1.1,0.8c0.4,0.3,0.7,0.6,1.1,0.9c0.4,0.3,0.7,0.6,1.1,1c0.4,0.3,0.8,0.7,1.1,1c0.4,0.4,0.7,0.8,1.1,1.1
				c0.2,0.2,0.4,0.4,0.6,0.6c0.2,0.2,0.4,0.4,0.5,0.6c0.4,0.4,0.7,0.9,1.1,1.3c0.3,0.5,0.7,0.9,1,1.4c0.2,0.2,0.3,0.5,0.5,0.7
				c0.2,0.3,0.3,0.5,0.5,0.8c0.3,0.5,0.6,1,0.9,1.6c0.6,1.1,1.1,2.2,1.6,3.4c0.5,1.2,0.9,2.4,1.3,3.6c0.3,1.3,0.6,2.5,0.8,3.8
				c0.1,0.6,0.2,1.3,0.2,2l0.1,2c0,2.4-0.2,5.2-0.8,7.7c-0.3,1.2-0.6,2.5-1.1,3.7c-0.4,1.2-0.9,2.3-1.4,3.4
				c-0.3,0.5-0.6,1.1-0.9,1.6c-0.1,0.3-0.3,0.5-0.4,0.8c-0.2,0.2-0.3,0.5-0.5,0.7c-0.3,0.5-0.6,1-1,1.4c-0.3,0.5-0.7,0.9-1,1.3
				c-0.2,0.2-0.3,0.4-0.5,0.7c-0.2,0.2-0.4,0.4-0.5,0.6c-0.4,0.4-0.7,0.8-1.1,1.2c-0.4,0.4-0.7,0.7-1.1,1.1
				c-0.2,0.2-0.4,0.3-0.5,0.5c-0.2,0.2-0.4,0.3-0.5,0.5c-0.4,0.3-0.7,0.6-1.1,0.9c-0.4,0.3-0.7,0.6-1.1,0.8c-0.4,0.3-0.7,0.5-1,0.7
				c-0.3,0.2-0.7,0.5-1,0.7c-0.7,0.4-1.3,0.8-1.8,1.1c-0.6,0.3-1.1,0.6-1.6,0.8c-0.2,0.1-0.5,0.2-0.7,0.4c-0.2,0.1-0.4,0.2-0.6,0.3
				c-0.4,0.2-0.7,0.3-1,0.4c-0.5,0.2-0.8,0.3-0.8,0.3s0.3-0.2,0.7-0.5c0.2-0.2,0.5-0.4,0.9-0.6c0.2-0.1,0.4-0.3,0.6-0.4
				c0.2-0.1,0.4-0.3,0.6-0.5c0.4-0.3,0.9-0.7,1.4-1.1c0.5-0.4,1-0.9,1.6-1.4c0.6-0.5,1.1-1.1,1.7-1.6c0.3-0.3,0.6-0.6,0.9-0.9
				c0.3-0.3,0.6-0.6,0.9-1c0.3-0.3,0.6-0.7,0.9-1.1c0.3-0.4,0.6-0.7,0.9-1.1c0.3-0.4,0.6-0.8,0.9-1.2c0.1-0.2,0.3-0.4,0.4-0.6
				c0.1-0.2,0.3-0.4,0.4-0.6c0.3-0.4,0.6-0.9,0.8-1.3c0.3-0.5,0.5-0.9,0.8-1.4c0.1-0.2,0.3-0.5,0.4-0.7c0.1-0.2,0.2-0.5,0.3-0.7
				c0.2-0.5,0.5-1,0.7-1.5c0.9-2.1,1.5-4.2,2-6.5c0.4-2.3,0.6-4.4,0.6-7c0,0.1,0,0,0,0l0,0l0-0.1l0-0.1l0-0.2l0-0.4l0-0.9
				c0-0.6-0.1-1.2-0.2-1.7c-0.1-1.2-0.4-2.3-0.6-3.4c-0.6-2.2-1.3-4.4-2.3-6.4c-0.2-0.5-0.5-1-0.8-1.5c-0.1-0.2-0.3-0.5-0.4-0.7
				c-0.1-0.2-0.3-0.5-0.4-0.7c-0.3-0.5-0.5-0.9-0.8-1.4c-0.3-0.4-0.6-0.9-0.9-1.3c-0.1-0.2-0.3-0.4-0.4-0.6
				c-0.2-0.2-0.3-0.4-0.5-0.6c-0.3-0.4-0.6-0.8-0.9-1.2c-0.3-0.4-0.6-0.7-1-1.1c-0.3-0.3-0.6-0.7-0.9-1c-0.3-0.3-0.6-0.6-0.9-0.9
				c-0.3-0.3-0.6-0.6-0.9-0.9c-0.6-0.5-1.2-1.1-1.8-1.6c-0.6-0.5-1.1-0.9-1.6-1.3c-0.5-0.4-1-0.7-1.4-1c-0.2-0.2-0.4-0.3-0.6-0.4
				c-0.2-0.1-0.4-0.3-0.6-0.4c-0.4-0.2-0.7-0.4-0.9-0.6C343.4,67.1,343.1,66.9,343.1,66.9z"/>
			<path id="XMLID_12_" class="st11" d="M342.9,56.2c0,0,0.4,0.1,1.2,0.3c0.4,0.1,0.9,0.3,1.5,0.4c0.3,0.1,0.6,0.2,0.9,0.3
				c0.3,0.1,0.7,0.2,1,0.4c0.7,0.3,1.5,0.6,2.4,0.9c0.9,0.4,1.8,0.8,2.7,1.3c1.9,1,4.1,2.2,6.3,3.8c1.1,0.8,2.2,1.6,3.3,2.6
				c1.1,1,2.2,2,3.3,3.1c2.2,2.2,4.2,4.8,6,7.7c1.8,2.9,3.3,6.2,4.3,9.6c0.5,1.7,0.9,3.5,1.2,5.3c0.3,1.8,0.4,3.6,0.5,5.5l0,0.1
				l0,0.1l0,0.2l0,0.3l0,0.7c0,0.2,0,0.4,0,0.7l0,0.7c0,0.9-0.1,1.9-0.2,2.8c-0.2,1.8-0.5,3.6-1,5.4c-0.4,1.7-1,3.5-1.6,5.1
				c-0.7,1.6-1.4,3.2-2.2,4.7c-1.6,3-3.6,5.7-5.6,8c-1,1.2-2.1,2.2-3.1,3.2c-1.1,1-2.1,1.9-3.2,2.7c-2.1,1.7-4.2,3-6.1,4
				c-0.9,0.5-1.8,1-2.7,1.4c-0.9,0.4-1.6,0.8-2.3,1c-0.4,0.1-0.7,0.3-1,0.4c-0.3,0.1-0.6,0.2-0.9,0.3c-0.6,0.2-1,0.4-1.4,0.5
				c-0.8,0.3-1.2,0.4-1.2,0.4s0.4-0.2,1.1-0.6c0.4-0.2,0.8-0.4,1.3-0.7c0.3-0.1,0.5-0.3,0.8-0.5c0.3-0.2,0.6-0.4,0.9-0.5
				c0.7-0.4,1.4-0.8,2.2-1.3c0.8-0.5,1.6-1,2.5-1.7c1.7-1.2,3.6-2.7,5.5-4.5c1.9-1.8,3.8-3.8,5.6-6.1c1.8-2.3,3.5-4.9,4.9-7.8
				c0.7-1.4,1.3-2.9,1.9-4.4c0.5-1.5,1-3.1,1.4-4.7c0.4-1.6,0.6-3.3,0.8-4.9c0.1-0.8,0.2-1.7,0.2-2.5l0-0.6c0-0.2,0-0.4,0-0.7l0-0.7
				l0-0.3l0-0.2l0-0.1c0-1.7-0.2-3.3-0.4-5c-0.3-1.7-0.6-3.3-1-4.9c-0.4-1.6-1-3.1-1.6-4.6c-0.6-1.5-1.3-2.9-2.1-4.3
				c-0.8-1.4-1.6-2.7-2.5-4c-0.9-1.3-1.8-2.4-2.7-3.6c-1.9-2.2-3.9-4.2-5.9-5.9c-2-1.7-3.9-3.1-5.7-4.2c-0.9-0.6-1.7-1.1-2.5-1.6
				c-0.8-0.4-1.5-0.9-2.2-1.2c-0.3-0.2-0.7-0.3-1-0.5c-0.3-0.2-0.6-0.3-0.9-0.4c-0.5-0.3-1-0.5-1.4-0.7
				C343.3,56.4,342.9,56.2,342.9,56.2z"/>
		</g>
	</g>
	<g id="XMLID_24_">
		<path id="XMLID_80_" d="M33,77.5L93.9,16V240H33V77.5z M153.1,16c25.2,6.4,30.2,7.1,46.1,21.3C215,51.5,223,72.9,223,101.6
			c0,21.3-6.9,39.8-22.4,57c-15.1,16.8-21.9,17.6-45.9,24.4h-45.1v-54.5l27.7-0.4c8.8,0,15.6-2.4,20.4-7.1
			c4.8-4.7,7.2-10.8,7.2-18.3c0-8.6-2.2-15.6-6.6-20.9c-4.4-5.3-11.6-8-21.5-8h-43V16H153.1z"/>
	</g>
	<text id="XMLID_82_" transform="matrix(1 0 0 1 1124.2671 -262.3674)" class="st1"><tspan x="0" y="0" class="st2" style="font-family:'YAYUSA'; font-size:220px;">P&apos;o</tspan><tspan x="0" y="130" class="st2" style="font-family:'YAYUSA'; font-size:220px;">Y4c</tspan><tspan x="0" y="260" class="st2" style="font-family:'YAYUSA'; font-size:220px;">T¡m</tspan></text>
</g>
<g id="Capa_3" class="st1">
	<text id="XMLID_1_" transform="matrix(1 0 0 1 -544.2912 588.5497)" class="st2" style="font-family:'SlimJoe'; font-size:220px;">proyectum</text>
</g>
<g id="Capa_2" class="st1">
	<g id="XMLID_79_" class="st2">
		
			<rect id="XMLID_77_" x="68.5" y="156.9" transform="matrix(-3.682621e-02 -0.9993 0.9993 -3.682621e-02 -88.9133 256.8671)" class="st12" width="21.7" height="28.7"/>
		<polygon id="XMLID_75_" class="st12" points="64.6,161 34.2,193.7 66.2,203.3 73,186.2 		"/>
		
			<rect id="XMLID_74_" x="-153.7" y="-3.8" transform="matrix(3.683972e-02 0.9993 -0.9993 3.683972e-02 80.7717 338.1779)" class="st12" width="37.3" height="429.7"/>
		<g id="XMLID_84_">
			<g id="XMLID_114_">
				<path id="XMLID_72_" class="st13" d="M56.5,121.8l32.1-1.2l0.5,13.1l4,109.2c0.1,3.6-1.8,6.6-4.2,6.7l-10,0.4
					c-2.2,0.1-4.1-2.1-4.6-5.3L57,134.9L56.5,121.8z"/>
				<path id="XMLID_71_" class="st13" d="M74.4,121.1l-26.9,1l0.5,13.1l0.2,6.6c0.1,3.6,2.2,6.5,4.7,6.4l22.4-0.8l-0.5-13.1
					L74.4,121.1z"/>
			</g>
			<path id="XMLID_66_" class="st14" d="M184.9,112.7L184.9,112.7c-7.4,0.3-13.8-8.3-14.2-19.2c-0.4-10.9,5.3-19.9,12.7-20.2
				c7.4-0.3,13.8,8.3,14.2,19.2C198,103.4,192.3,112.4,184.9,112.7"/>
			<path id="XMLID_65_" class="st14" d="M37.2,78.6c4.9-0.2,9.1,5.5,9.4,12.8l0.5,13.2c0.3,7.2-3.5,13.3-8.4,13.4l0,0l0,0
				c-4.9,0.2-9.1-5.5-9.4-12.8l-0.5-13.2C28.5,84.8,32.3,78.8,37.2,78.6z"/>
			<path id="XMLID_43_" class="st14" d="M74.9,134.2l-2.7-74.4L95.1,59c34.6-1.3,65-23.9,85.7-59l6.9,185.9
				c-23.2-33.5-55.2-53.8-89.8-52.5L74.9,134.2z"/>
			<path id="XMLID_29_" class="st15" d="M184.2,93L180.8,0c-20.7,35.1-51.1,57.7-85.7,59l1.4,37.2L184.2,93z"/>
			<line id="XMLID_28_" class="st16" x1="187.6" y1="185.9" x2="180.8" y2="0"/>
			<path id="XMLID_27_" class="st17" d="M97.8,133.4l-49.6,1.8c-4.9,0.2-9.1-5.5-9.4-12.8L37,74.3C36.8,67,40.6,61,45.5,60.8
				L95.1,59L97.8,133.4z"/>
			<path id="XMLID_26_" class="st15" d="M96.4,96.2L95.1,59l-49.6,1.8C40.6,61,36.8,67,37,74.3l0.9,24.1L96.4,96.2z"/>
		</g>
		<path id="XMLID_25_" class="st12" d="M116.7,173.5l-51.6,1.9l0.5,14.5l51.6-1.9c4-0.1,7.1-3.5,7-7.5
			C124.1,176.5,120.7,173.4,116.7,173.5"/>
		<path id="XMLID_23_" class="st12" d="M113.6,215.9c4-0.1,7.3,3,7.5,7c0.1,4-3,7.3-7,7.5l-61,2.2l-15-13.9L113.6,215.9z"/>
		<path id="XMLID_22_" class="st12" d="M114.6,201.8l-48.5,1.8l0.5,14.5l48.5-1.8c4-0.1,7.1-3.5,7-7.5
			C122,204.7,118.6,201.6,114.6,201.8"/>
		<path id="XMLID_21_" class="st12" d="M115.7,187.6l-50,1.8l0.5,14.5l50-1.8c4-0.1,7.1-3.5,7-7.5
			C123,190.6,119.7,187.5,115.7,187.6"/>
	</g>
</g>
</svg>
